# Blender v3.0.0 OBJ File: ''
# www.blender.org
mtllib Star.mtl
o Star
v 0.250000 0.000000 0.000000
v 0.250000 -0.500000 0.000000
v 0.250000 -0.809017 -0.587785
v 0.250000 -0.154509 -0.475528
v 0.250000 0.309017 -0.951057
v 0.250000 0.404509 -0.293893
v 0.250000 1.000000 -0.000000
v 0.250000 0.404509 0.293893
v 0.250000 0.309017 0.951057
v 0.250000 -0.154509 0.475528
v 0.250000 -0.809017 0.587786
v 0.000000 -0.500000 0.000000
v 0.250000 0.702254 -0.146946
v 0.250000 -0.654508 0.293893
v -0.000000 1.000000 -0.000000
v 0.250000 -0.654508 -0.293893
v 0.250000 0.702254 0.146946
v -0.000000 0.404509 -0.293893
v 0.000000 -0.809017 0.587786
v 0.000000 -0.809017 -0.587785
v -0.000000 0.404509 0.293893
v 0.250000 -0.481763 -0.531657
v 0.250000 0.356763 0.622475
v 0.000000 -0.154509 -0.475528
v -0.000000 0.309017 0.951057
v 0.250000 0.077254 -0.713292
v 0.250000 0.077254 0.713292
v -0.000000 0.309017 -0.951057
v 0.000000 -0.154509 0.475528
v 0.250000 0.356763 -0.622475
v 0.250000 -0.481763 0.531657
v 0.000000 -0.481763 0.531657
v -0.000000 0.077254 0.713292
v -0.000000 0.356763 0.622475
v -0.000000 0.702254 0.146946
v -0.000000 0.702254 -0.146946
v -0.000000 0.356763 -0.622475
v -0.000000 0.077254 -0.713292
v 0.000000 -0.481763 -0.531657
v 0.000000 -0.654508 -0.293893
v 0.000000 -0.654508 0.293893
v -0.250000 -0.000000 0.000000
v -0.250000 -0.500000 0.000000
v -0.250000 -0.809017 -0.587785
v -0.250000 -0.154509 -0.475528
v -0.250000 0.309017 -0.951057
v -0.250000 0.404509 -0.293893
v -0.250000 1.000000 -0.000000
v -0.250000 0.404509 0.293893
v -0.250000 0.309017 0.951057
v -0.250000 -0.154509 0.475528
v -0.250000 -0.809017 0.587786
v -0.250000 0.702254 -0.146946
v -0.250000 -0.654508 0.293893
v -0.250000 -0.654508 -0.293893
v -0.250000 0.702254 0.146946
v -0.250000 -0.481763 -0.531657
v -0.250000 0.356763 0.622475
v -0.250000 0.077254 -0.713292
v -0.250000 0.077254 0.713292
v -0.250000 0.356763 -0.622475
v -0.250000 -0.481763 0.531657
vt 1.000000 0.007812
vt 0.000000 0.007812
vt 1.000000 1.000000
vt 1.000000 0.503906
vt 0.000000 0.000000
vt 1.000000 0.000000
vt 1.000000 0.500000
vt 1.000000 1.000000
vt 1.000000 0.000000
vt 1.000000 0.500000
vt 1.000000 1.000000
vt 1.000000 0.000000
vt 1.000000 0.500000
vt 1.000000 1.000000
vt 1.000000 0.000000
vt 1.000000 0.500000
vt 1.000000 1.000000
vt 1.000000 0.000000
vt 1.000000 0.500000
vt 1.000000 1.000000
vt 1.000000 0.000000
vt 1.000000 0.500000
vt 1.000000 1.000000
vt 1.000000 0.000000
vt 1.000000 0.500000
vt 1.000000 1.000000
vt 1.000000 0.000000
vt 1.000000 0.500000
vt 1.000000 1.000000
vt 1.000000 0.000000
vt 1.000000 0.500000
vt 0.039985 0.654509
vt 0.960015 0.654509
vt 0.960015 0.809017
vt 0.039985 0.809017
vt 0.960015 0.196520
vt 0.039985 0.196520
vt 0.039985 0.024472
vt 0.960015 0.024472
vt 0.960015 0.368567
vt 0.039985 0.368567
vt 0.960015 0.875000
vt 0.039985 0.875000
vt 0.039985 0.750000
vt 0.960015 0.750000
vt 0.960015 1.000000
vt 0.039986 1.000000
vt 0.960015 0.827254
vt 0.039985 0.827254
vt 0.960015 0.654508
vt 0.039985 0.654508
vt 0.960015 0.818994
vt 0.039985 0.818994
vt 0.039985 0.662460
vt 0.960015 0.662460
vt 0.960015 0.975528
vt 0.039986 0.975528
vt 0.960015 0.818994
vt 0.039985 0.818994
vt 0.960015 0.662460
vt 0.039985 0.662460
vt 0.960015 0.172746
vt 0.039985 0.172746
vt 0.039985 0.345492
vt 0.960015 0.345492
vt 0.960015 0.000000
vt 0.039985 0.000000
vt 0.960015 0.125000
vt 0.039985 0.125000
vt 0.960015 0.250000
vt 0.039985 0.250000
vt 0.960015 0.196519
vt 0.039985 0.196519
vt 0.039985 0.368567
vt 0.960015 0.368567
vt 0.960015 0.024472
vt 0.039985 0.024472
vt 0.960015 0.345492
vt 0.039985 0.345492
vt 0.039985 0.190983
vt 0.960015 0.190983
vt 0.960015 0.500000
vt 0.039985 0.500000
vt 1.000000 0.007812
vt 1.000000 0.503906
vt 1.000000 1.000000
vt 0.000000 0.007812
vt 0.000000 0.000000
vt 1.000000 1.000000
vt 1.000000 0.500000
vt 1.000000 0.000000
vt 1.000000 1.000000
vt 1.000000 0.500000
vt 1.000000 0.000000
vt 1.000000 1.000000
vt 1.000000 0.500000
vt 1.000000 0.000000
vt 1.000000 1.000000
vt 1.000000 0.500000
vt 1.000000 0.000000
vt 1.000000 1.000000
vt 1.000000 0.500000
vt 1.000000 0.000000
vt 1.000000 1.000000
vt 1.000000 0.500000
vt 1.000000 0.000000
vt 1.000000 1.000000
vt 1.000000 0.500000
vt 1.000000 0.000000
vt 1.000000 1.000000
vt 1.000000 0.500000
vt 1.000000 0.000000
vt 1.000000 0.500000
vt 1.000000 0.000000
vt 0.960015 0.809017
vt 0.960015 0.654509
vt 0.960015 0.196520
vt 0.960015 0.024472
vt 0.960015 0.368567
vt 0.960015 0.875000
vt 0.960015 0.750000
vt 0.960015 1.000000
vt 0.960015 0.827254
vt 0.960015 0.654508
vt 0.960015 0.818994
vt 0.960015 0.662460
vt 0.960015 0.975528
vt 0.960015 0.818994
vt 0.960015 0.662460
vt 0.960015 0.172746
vt 0.960015 0.345492
vt 0.960015 0.000000
vt 0.960015 0.125000
vt 0.960015 0.250000
vt 0.960015 0.196519
vt 0.960015 0.368567
vt 0.960015 0.024472
vt 0.960015 0.345492
vt 0.960015 0.190983
vt 0.960015 0.500000
vn 1.0000 0.0000 -0.0000
vn 0.0000 -0.8851 -0.4653
vn 0.0000 0.1690 0.9856
vn 0.0000 -0.7161 0.6980
vn -0.0000 0.9896 0.1438
vn -0.0000 0.4426 0.8967
vn 0.0000 0.4426 -0.8967
vn -0.0000 0.9896 -0.1438
vn -0.0000 -0.7161 -0.6980
vn 0.0000 0.1690 -0.9856
vn 0.0000 -0.8851 0.4653
vn -1.0000 -0.0000 0.0000
usemtl Material.001
s off
f 2/1/1 1/2/1 11/3/1 14/4/1
f 1/5/1 2/6/1 16/7/1 3/8/1
f 1/5/1 3/9/1 22/10/1 4/11/1
f 1/5/1 4/12/1 26/13/1 5/14/1
f 1/5/1 5/15/1 30/16/1 6/17/1
f 1/5/1 6/18/1 13/19/1 7/20/1
f 1/5/1 7/21/1 17/22/1 8/23/1
f 1/5/1 8/24/1 23/25/1 9/26/1
f 1/5/1 9/27/1 27/28/1 10/29/1
f 1/5/1 10/30/1 31/31/1 11/3/1
f 41/32/2 14/33/2 11/34/2 19/35/2
f 31/36/3 32/37/3 19/38/3 11/39/3
f 10/40/3 29/41/3 32/37/3 31/36/3
f 27/42/4 33/43/4 29/44/4 10/45/4
f 9/46/4 25/47/4 33/43/4 27/42/4
f 23/48/5 34/49/5 25/47/5 9/46/5
f 8/50/5 21/51/5 34/49/5 23/48/5
f 17/52/6 35/53/6 21/54/6 8/55/6
f 7/56/6 15/57/6 35/53/6 17/52/6
f 13/58/7 36/59/7 15/57/7 7/56/7
f 6/60/7 18/61/7 36/59/7 13/58/7
f 30/62/8 37/63/8 18/64/8 6/65/8
f 5/66/8 28/67/8 37/63/8 30/62/8
f 26/68/9 38/69/9 28/67/9 5/66/9
f 4/70/9 24/71/9 38/69/9 26/68/9
f 22/72/10 39/73/10 24/74/10 4/75/10
f 3/76/10 20/77/10 39/73/10 22/72/10
f 16/78/11 40/79/11 20/80/11 3/81/11
f 2/82/11 12/83/11 40/79/11 16/78/11
f 12/83/2 2/82/2 14/33/2 41/32/2
f 43/84/12 54/85/12 52/86/12 42/87/12
f 42/88/12 44/89/12 55/90/12 43/91/12
f 42/88/12 45/92/12 57/93/12 44/94/12
f 42/88/12 46/95/12 59/96/12 45/97/12
f 42/88/12 47/98/12 61/99/12 46/100/12
f 42/88/12 48/101/12 53/102/12 47/103/12
f 42/88/12 49/104/12 56/105/12 48/106/12
f 42/88/12 50/107/12 58/108/12 49/109/12
f 42/88/12 51/110/12 60/111/12 50/112/12
f 42/88/12 52/86/12 62/113/12 51/114/12
f 41/32/2 19/35/2 52/115/2 54/116/2
f 62/117/3 52/118/3 19/38/3 32/37/3
f 51/119/3 62/117/3 32/37/3 29/41/3
f 60/120/4 51/121/4 29/44/4 33/43/4
f 50/122/4 60/120/4 33/43/4 25/47/4
f 58/123/5 50/122/5 25/47/5 34/49/5
f 49/124/5 58/123/5 34/49/5 21/51/5
f 56/125/6 49/126/6 21/54/6 35/53/6
f 48/127/6 56/125/6 35/53/6 15/57/6
f 53/128/7 48/127/7 15/57/7 36/59/7
f 47/129/7 53/128/7 36/59/7 18/61/7
f 61/130/8 47/131/8 18/64/8 37/63/8
f 46/132/8 61/130/8 37/63/8 28/67/8
f 59/133/9 46/132/9 28/67/9 38/69/9
f 45/134/9 59/133/9 38/69/9 24/71/9
f 57/135/10 45/136/10 24/74/10 39/73/10
f 44/137/10 57/135/10 39/73/10 20/77/10
f 55/138/11 44/139/11 20/80/11 40/79/11
f 43/140/11 55/138/11 40/79/11 12/83/11
f 12/83/2 41/32/2 54/116/2 43/140/2
